<?xml version="1.0" encoding="utf-8"?>
<!-- Generator: Adobe Illustrator 18.1.1, SVG Export Plug-In . SVG Version: 6.00 Build 0)  -->
<svg version="1.1" id="Layer_1" xmlns="http://www.w3.org/2000/svg" xmlns:xlink="http://www.w3.org/1999/xlink" x="0px" y="0px"
	 viewBox="0 0 792 612" enable-background="new 0 0 792 612" xml:space="preserve">
<path fill="#FFFFD7" d="M619.5,0H172.5C126.9,0,90,36.9,90,82.5v447.1c0,45.5,36.9,82.5,82.5,82.5H393l0.4-218.7h-56.8
	c-7.4,0-13.4-6-13.4-13.4l-0.3-70.5c0-7.4,6-13.5,13.4-13.5H393v-68.1c0-79,48.3-122.1,118.8-122.1h57.9c7.4,0,13.4,6,13.4,13.4
	v59.4c0,7.4-6,13.4-13.4,13.4l-35.5,0c-38.3,0-45.8,18.2-45.8,45v59h84.3c8,0,14.3,7,13.3,15l-8.4,70.5c-0.8,6.7-6.5,11.8-13.3,11.8
	h-75.5L488.3,612h131.2c45.5,0,82.5-36.9,82.5-82.5V82.5C702,36.9,665.1,0,619.5,0z"/>
</svg>
