<?xml version="1.0" encoding="utf-8"?>
<!-- Generator: Adobe Illustrator 18.1.1, SVG Export Plug-In . SVG Version: 6.00 Build 0)  -->
<svg version="1.1" id="Layer_1" xmlns="http://www.w3.org/2000/svg" xmlns:xlink="http://www.w3.org/1999/xlink" x="0px" y="0px"
	 viewBox="0 0 1920 1080" enable-background="new 0 0 1920 1080" xml:space="preserve">
<g>
	<g>
		<g>
			<image overflow="visible" width="1784" height="1127" xlink:href="36DEFC11.png"  transform="matrix(1 0 0 1 62 -31)">
			</image>
			<g>
				<path fill="#FFFFFF" d="M1741.5,111.8L1741.5,111.8c-58.4-62.3-155.8-65.3-218.1-7L985.5,609.4c-26.3,24.7-68.1,23.6-92.8-2.7
					L383.5,66.9c-58.4-61.9-155.1-63-215-3.1l0,0c-61.9,58.4-65,156.2-6.2,218.1l655.8,695.3c30.2,32.1,71.1,48.3,112.1,48.3
					c38.7,0.4,77.3-13.1,107.9-41.8l696.8-653.5C1796.8,271.5,1799.9,174,1741.5,111.8z"/>
			</g>
		</g>
	</g>
</g>
</svg>
