<?xml version="1.0" encoding="utf-8"?>
<!-- Generator: Adobe Illustrator 18.1.1, SVG Export Plug-In . SVG Version: 6.00 Build 0)  -->
<svg version="1.1" id="Layer_1" xmlns="http://www.w3.org/2000/svg" xmlns:xlink="http://www.w3.org/1999/xlink" x="0px" y="0px"
	 viewBox="0 0 792 612" enable-background="new 0 0 792 612" xml:space="preserve">
<path fill="#FFFFD7" d="M646.6,0H145.4C114.8,0,90,24.8,90,55.4v501.3c0,30.6,24.8,55.4,55.4,55.4h501.3c30.6,0,55.4-24.8,55.4-55.4
	V55.4C702,24.8,677.2,0,646.6,0z M279.4,528.4c0,8.9-7.2,16.1-16.1,16.1h-68.6c-8.9,0-16.1-7.2-16.1-16.1V241
	c0-8.9,7.2-16.1,16.1-16.1h68.6c8.9,0,16.1,7.2,16.1,16.1V528.4z M229,197.7c-36,0-65.2-29.2-65.2-65.2S193,67.4,229,67.4
	s65.2,29.2,65.2,65.2S265,197.7,229,197.7z M637.8,529.7c0,8.2-6.6,14.8-14.8,14.8h-73.6c-8.2,0-14.8-6.6-14.8-14.8V394.9
	c0-20.1,5.9-88.1-52.6-88.1c-45.4,0-54.6,46.6-56.4,67.5v155.5c0,8.2-6.6,14.8-14.8,14.8h-71.2c-8.2,0-14.8-6.6-14.8-14.8V239.7
	c0-8.2,6.6-14.8,14.8-14.8h71.2c8.2,0,14.8,6.6,14.8,14.8v25.1c16.8-25.2,41.8-44.7,95-44.7c117.8,0,117.2,110.1,117.2,170.6V529.7
	L637.8,529.7z"/>
</svg>
