<?xml version="1.0" encoding="utf-8"?>
<!-- Generator: Adobe Illustrator 18.1.1, SVG Export Plug-In . SVG Version: 6.00 Build 0)  -->
<svg version="1.1" id="Layer_1" xmlns="http://www.w3.org/2000/svg" xmlns:xlink="http://www.w3.org/1999/xlink" x="0px" y="0px"
	 viewBox="0 0 792 612" enable-background="new 0 0 792 612" xml:space="preserve">
<path fill="#FFFFD7" d="M692.3,110.7c-13.6,6-27.7,10.8-42.2,14.2c16-15.2,28-34.1,34.7-55.3l0,0c1.9-6-4.6-11.3-10.1-8l0,0
	c-20.1,12-41.9,20.9-64.5,26.7c-1.3,0.3-2.7,0.5-4,0.5c-4.1,0-8.1-1.5-11.3-4.3c-24.1-21.2-55.1-32.9-87.3-32.9
	c-13.9,0-28,2.2-41.8,6.5C423,71.2,390,106.5,379.6,150c-3.9,16.3-4.9,32.7-3.1,48.6c0.2,1.8-0.7,3.1-1.2,3.7
	c-0.9,1-2.3,1.7-3.6,1.7c-0.2,0-0.3,0-0.5,0c-93.6-8.7-178.1-53.8-237.8-127l0,0c-3-3.7-8.9-3.3-11.3,0.9l0,0
	c-11.7,20.1-17.9,43-17.9,66.3c0,35.8,14.4,69.5,39.3,94.1c-10.5-2.5-20.7-6.4-30.1-11.7l0,0c-4.6-2.5-10.2,0.7-10.2,5.9l0,0
	c-0.7,53.1,30.5,100.4,77.1,121.7c-0.9,0-1.9,0-2.8,0c-7.4,0-14.9-0.7-22.2-2.1l0,0c-5.1-1-9.5,3.9-7.9,8.9l0,0
	c15.1,47.2,55.8,82,104.5,89.9c-40.4,27.1-87.4,41.4-136.4,41.4l-15.3,0c-4.7,0-8.7,3.1-9.9,7.6c-1.2,4.5,1,9.2,5,11.5
	c55.2,32.1,118.1,49.1,182,49.1c55.9,0,108.3-11.1,155.5-33c43.3-20.1,81.6-48.8,113.8-85.3c30-34,53.4-73.3,69.7-116.7
	c15.5-41.4,23.7-85.5,23.7-127.7v-2c0-6.8,3.1-13.1,8.4-17.5c20.3-16.5,37.9-35.8,52.5-57.6l0,0
	C704.6,115.1,698.6,107.9,692.3,110.7L692.3,110.7z"/>
</svg>
